#!OML:ASF H:\BreakDance\Project 1\Capture day 1\Session 1\Male.ASF
:FULLY-SPECIFIED
:DEGREES
870
root 5.73576 15.6948 7.19613 -178.369 -57.5258 537.519
lowerback -2.30394 0.910894 0.518824
upperback 5.02581 1.14315 -1.1238
thorax 6.5487 0.576025 -1.37574
lowerneck 0.618325 3.31552 2.79585
upperneck 9.04029 4.12603 0.760788
head 2.80887 2.08165 -0.142979
rclavicle -9.78393e-014 2.79292e-014
rhumerus 25.9105 42.9728 -62.6642
rradius 35.9515
rwrist 11.8016
rhand -42.0834 -34.5116
rfingers 7.12502
rthumb -14.9755 -63.9501
lclavicle -9.78393e-014 2.79292e-014
lhumerus 15.6496 -34.1663 59.9493
lradius 40.0856
lwrist -11.9267
lhand -43.4368 -394.257
lfingers 7.12502
lthumb -16.279 -4.92064
rfemur -23.2065 -2.84578 2.06448
rtibia 42.7509
rfoot -12.7539 -10.6185
rtoes -30.3099
lfemur -8.2651 2.22607 -5.40591
ltibia 32.9405
lfoot -26.5314 21.6098
ltoes -41.7019
871
root 5.73163 15.6961 7.1917 -178.493 -57.5438 537.641
lowerback -2.32584 0.900009 0.559133
upperback 5.01155 1.12578 -1.09358
thorax 6.54586 0.569079 -1.36792
lowerneck 0.632014 3.32548 2.88318
upperneck 9.06898 4.13972 0.714317
head 2.81984 2.08962 -0.172205
rclavicle -8.60489e-014 1.48095e-014
rhumerus 25.8269 42.9352 -62.7657
rradius 35.9538
rwrist 11.7847
rhand -42.0866 -34.595
rfingers 7.12502
rthumb -14.9785 -64.0333
lclavicle -8.60489e-014 1.48095e-014
lhumerus 15.6039 -34.1797 59.9481
lradius 40.071
lwrist -11.8653
lhand -43.4157 -394.335
lfingers 7.12502
lthumb -16.2587 -4.99627
rfemur -23.1375 -2.88235 2.1449
rtibia 42.7178
rfoot -12.7571 -10.5996
rtoes -30.3844
lfemur -8.27458 2.3136 -5.31724
ltibia 33.0247
lfoot -26.539 21.5298
ltoes -41.61
872
root 5.72732 15.6969 7.18713 -178.622 -57.5511 537.767
lowerback -2.35811 0.890856 0.58793
upperback 5.00495 1.11054 -1.05129
thorax 6.55668 0.562258 -1.34078
lowerneck 0.635976 3.33858 2.92799
upperneck 9.10021 4.15678 0.688864
head 2.83182 2.09862 -0.187256
rclavicle 1.02262e-013 -2.28602e-015
rhumerus 25.7872 42.9107 -62.8153
rradius 35.9416
rwrist 11.8101
rhand -42.0974 -34.6772
rfingers 7.12502
rthumb -14.989 -64.1147
lclavicle 1.02262e-013 -2.28602e-015
lhumerus 15.5766 -34.1936 59.9405
lradius 40.0588
lwrist -11.7746
lhand -43.3976 -394.325
lfingers 7.12502
lthumb -16.2412 -4.98502
rfemur -23.0747 -2.89181 2.2275
rtibia 42.6942
rfoot -12.7523 -10.6022
rtoes -30.5106
lfemur -8.27563 2.40038 -5.22564
ltibia 33.1005
lfoot -26.5389 21.4517
ltoes -41.4401
873
root 5.72334 15.6973 7.18256 -178.744 -57.5589 537.896
lowerback -2.39993 0.880022 0.60511
upperback 5.00112 1.09309 -0.998316
thorax 6.57541 0.553489 -1.29604
lowerneck 0.629116 3.35408 2.92347
upperneck 9.13245 4.17595 0.690279
head 2.84411 2.10795 -0.185123
rclavicle 1.75303e-014 -7.95139e-016
rhumerus 25.7959 42.9009 -62.8067
rradius 35.9176
rwrist 11.872
rhand -42.1091 -34.7622
rfingers 7.12502
rthumb -15.0003 -64.1989
lclavicle 1.75303e-014 -7.95139e-016
lhumerus 15.5641 -34.2012 59.9309
lradius 40.0494
lwrist -11.6704
lhand -43.3844 -394.228
lfingers 7.12502
lthumb -16.2285 -4.88731
rfemur -23.0261 -2.87499 2.31257
rtibia 42.6806
rfoot -12.7491 -10.6196
rtoes -30.5926
lfemur -8.28787 2.47569 -5.13123
ltibia 33.1657
lfoot -26.5123 21.4109
ltoes -41.3143
874
root 5.71977 15.6975 7.17786 -178.842 -57.5732 538.008
lowerback -2.44799 0.866934 0.605319
upperback 4.99585 1.07354 -0.943839
thorax 6.59579 0.5428 -1.24033
lowerneck 0.632018 3.37036 2.87682
upperneck 9.15382 4.19513 0.724275
head 2.8489 2.11679 -0.165731
rclavicle 2.12948e-014 -7.15625e-015
rhumerus 25.8357 42.8975 -62.763
rradius 35.8841
rwrist 11.9697
rhand -42.1145 -34.8534
rfingers 7.12502
rthumb -15.0055 -64.2897
lclavicle 2.12948e-014 -7.15625e-015
lhumerus 15.557 -34.1963 59.9218
lradius 40.0425
lwrist -11.5888
lhand -43.3819 -394.081
lfingers 7.12502
lthumb -16.2261 -4.74016
rfemur -22.9906 -2.84293 2.38818
rtibia 42.6775
rfoot -12.761 -10.6294
rtoes -30.5412
lfemur -8.31319 2.54101 -5.04631
ltibia 33.2181
lfoot -26.4425 21.4252
ltoes -41.3199
875
root 5.71608 15.6975 7.17294 -178.9 -57.5915 538.073
lowerback -2.49723 0.854755 0.584979
upperback 4.98871 1.05698 -0.901186
thorax 6.61481 0.532845 -1.1852
lowerneck 0.660622 3.38336 2.80448
upperneck 9.15813 4.20891 0.7903
head 2.84155 2.12277 -0.132551
rclavicle 3.90612e-014 -9.93923e-016
rhumerus 25.874 42.89 -62.7204
rradius 35.848
rwrist 12.0975
rhand -42.1236 -34.9608
rfingers 7.12502
rthumb -15.0142 -64.3964
lclavicle 3.90612e-014 -9.93923e-016
lhumerus 15.5564 -34.1906 59.9037
lradius 40.0353
lwrist -11.5439
lhand -43.3888 -393.926
lfingers 7.12502
lthumb -16.2328 -4.58513
rfemur -22.9575 -2.81626 2.43459
rtibia 42.6842
rfoot -12.8053 -10.6036
rtoes -30.3039
lfemur -8.33452 2.5938 -4.9922
ltibia 33.2555
lfoot -26.3421 21.4933
ltoes -41.4764
876
root 5.71191 15.6973 7.16778 -178.92 -57.6095 538.088
lowerback -2.54383 0.846798 0.553565
upperback 4.9801 1.04776 -0.879003
thorax 6.6312 0.526464 -1.14466
lowerneck 0.710091 3.38913 2.72862
upperneck 9.15118 4.21189 0.877894
head 2.82578 2.12364 -0.0927012
rclavicle -3.87133e-014 -1.78906e-015
rhumerus 25.8851 42.8681 -62.7116
rradius 35.814
rwrist 12.2379
rhand -42.1335 -35.0617
rfingers 7.12502
rthumb -15.0237 -64.4966
lclavicle -3.87133e-014 -1.78906e-015
lhumerus 15.5685 -34.2002 59.8643
lradius 40.0238
lwrist -11.5357
lhand -43.3993 -393.789
lfingers 7.12502
lthumb -16.2428 -4.44944
rfemur -22.919 -2.80652 2.44865
rtibia 42.6978
rfoot -12.8749 -10.5578
rtoes -29.9924
lfemur -8.34171 2.62906 -4.97204
ltibia 33.2783
lfoot -26.2278 21.6027
ltoes -41.7578
